<svg xmlns="http://www.w3.org/2000/svg" viewBox="0 0 512 512"><rect width="512" height="512" rx="112" fill="#233f63"/><circle cx="176" cy="212" r="92" fill="#171d27"/><path d="M106 151 132 77 183 151Z" fill="#171d27"/><path d="M246 151 220 77 169 151Z" fill="#171d27"/><circle cx="146" cy="210" r="14" fill="#f3ce55"/><circle cx="205" cy="210" r="14" fill="#f3ce55"/><ellipse cx="176" cy="244" rx="18" ry="14" fill="#f1cdbd"/><circle cx="338" cy="218" r="88" fill="#d8b08a"/><path d="M274 164 298 94 344 164Z" fill="#d8b08a"/><path d="M402 164 378 94 332 164Z" fill="#d8b08a"/><circle cx="310" cy="216" r="13" fill="#316741"/><circle cx="366" cy="216" r="13" fill="#316741"/><ellipse cx="338" cy="247" rx="17" ry="13" fill="#f0d0c1"/><path d="M300 151 312 184M338 143 338 181M376 151 364 184" stroke="#9f7d60" stroke-width="10" stroke-linecap="round"/><rect x="111" y="327" width="290" height="86" rx="32" fill="#fffdfa"/><text x="256" y="383" text-anchor="middle" font-size="54" font-family="Arial, sans-serif" font-weight="700" fill="#233f63">記帳</text></svg>